HIERARCHY
ROOT root
{
	OFFSET	0	13.1	24.9
	CHANNELS 6  Xposition Yposition Zposition Xrotation Yrotation Zrotation
	JOINT spine_1
	{
		OFFSET	0	9.99999	0
		CHANNELS 3  Xrotation Yrotation Zrotation
		JOINT spine_2
		{
			OFFSET	0	112	-10
			CHANNELS 3  Xrotation Yrotation Zrotation
			JOINT spine_3
			{
				OFFSET	0	206.5	19.3
				CHANNELS 3  Xrotation Yrotation Zrotation
				JOINT spine_4
				{
					OFFSET	0	110.4	14.6
					CHANNELS 3  Xrotation Yrotation Zrotation
					JOINT neck_1
					{
						OFFSET	0	71.8	-50.3
						CHANNELS 3  Xrotation Yrotation Zrotation
						JOINT neck_2
						{
							OFFSET	0	86.2	-25.8
							CHANNELS 3  Xrotation Yrotation Zrotation
							JOINT head_ee
							{
								OFFSET	0	179.8	-8.7
								CHANNELS 3  Xrotation Yrotation Zrotation
								End Site
								{
									OFFSET	1	0	0
								}
							}
						}
					}
					JOINT left_clavicle
					{
						OFFSET	-43.2	22.4	-70.8
						CHANNELS 3  Xrotation Yrotation Zrotation
						JOINT left_shoulder
						{
							OFFSET	-93.9	-5.79999	48.7
							CHANNELS 3  Xrotation Yrotation Zrotation
							JOINT left_elbow
							{
								OFFSET	-291.4	-30.8	15.2
								CHANNELS 3  Xrotation Yrotation Zrotation
								JOINT left_lowarm_twist
								{
									OFFSET	-110.7	-3.89999	13.6
									CHANNELS 3  Xrotation Yrotation Zrotation
									JOINT left_hand
									{
										OFFSET	-110.7	-3.89999	13.6
										CHANNELS 3  Xrotation Yrotation Zrotation
										JOINT left_ee
										{
											OFFSET	-80.8	-5.10001	12.1
											CHANNELS 3  Xrotation Yrotation Zrotation
											End Site
											{
												OFFSET	1	0	0
											}
										}
									}
								}
							}
						}
					}
					JOINT right_clavicle
					{
						OFFSET	43.2	22.4	-70.8
						CHANNELS 3  Xrotation Yrotation Zrotation
						JOINT right_shoulder
						{
							OFFSET	93.9	-5.79999	48.7
							CHANNELS 3  Xrotation Yrotation Zrotation
							JOINT right_elbow
							{
								OFFSET	291.4	-30.8	15.2
								CHANNELS 3  Xrotation Yrotation Zrotation
								JOINT right_lowarm_twist
								{
									OFFSET	110.7	-3.89999	13.6
									CHANNELS 3  Xrotation Yrotation Zrotation
									JOINT right_hand
									{
										OFFSET	110.7	-3.89999	13.6
										CHANNELS 3  Xrotation Yrotation Zrotation
										JOINT right_ee
										{
											OFFSET	80.8	-5.10001	12.1
											CHANNELS 3  Xrotation Yrotation Zrotation
											End Site
											{
												OFFSET	1	0	0
											}
										}
									}
								}
							}
						}
					}
				}
			}
		}
	}
	JOINT left_hip
	{
		OFFSET	-82.8	-127.5	0.300001
		CHANNELS 3  Xrotation Yrotation Zrotation
		JOINT left_knee
		{
			OFFSET	-28.2	-396.7	2.2
			CHANNELS 3  Xrotation Yrotation Zrotation
			JOINT left_ankle
			{
				OFFSET	-11.7	-411.3	35.4
				CHANNELS 3  Xrotation Yrotation Zrotation
				JOINT left_toes
				{
					OFFSET	0	-60	-88.6
					CHANNELS 3  Xrotation Yrotation Zrotation
					JOINT left_foot_ee
					{
						OFFSET	-22.5	-16.5	-42.2
						CHANNELS 3  Xrotation Yrotation Zrotation
						End Site
						{
							OFFSET	1	0	0
						}
					}
				}
			}
		}
	}
	JOINT right_hip
	{
		OFFSET	82.8	-127.5	0.300001
		CHANNELS 3  Xrotation Yrotation Zrotation
		JOINT right_knee
		{
			OFFSET	28.2	-396.7	2.2
			CHANNELS 3  Xrotation Yrotation Zrotation
			JOINT right_ankle
			{
				OFFSET	11.7	-411.3	35.4
				CHANNELS 3  Xrotation Yrotation Zrotation
				JOINT right_toes
				{
					OFFSET	0	-60	-88.6
					CHANNELS 3  Xrotation Yrotation Zrotation
					JOINT right_foot_ee
					{
						OFFSET	22.5	-16.5	-42.2
						CHANNELS 3  Xrotation Yrotation Zrotation
						End Site
						{
							OFFSET	1	0	0
						}
					}
				}
			}
		}
	}
}
MOTION
Frames: 13
Frame Time: 0.02
2813.89044422 711.075 -1636.95869293 5.86750614299 72.2600646223 0.142519776215 -0.1166 -0.48786 -2.17687 -0.114031 -0.348386 -2.20349 -0.0990003 0.126339 -2.22727 -0.105852 -0.226913 -2.21928 -2.39731 5.72757 5.36889 -2.31598 6.13749 6.39777 -0.0 0.0 -0.0 7.79384 8.30548 14.9021 -1.64455 -27.4427 55.2446 1.51396 -36.8664 0.504629 -52.8635 -4.41093 4.82422 5.18869 22.8893 44.1358 -0.0 0.0 -0.0 -0.682375 10.3083 2.64182 -6.41894 18.7076 -74.9127 0.204277 5.77841 -0.0103097 14.9861 -0.282536 1.88805 -0.481341 -9.06112 -0.659652 0.0 0.0 0.0 -3.94452 2.87259 -1.73901 4.69224 -0.221467 -0.685646 34.9534 14.5372 -4.44778 -24.0582 0.0 0.0 -0.0 0.0 -0.0 14.9528 9.92806 -5.90778 -49.3149 1.16303 -7.24914 -17.8986 27.2487 -3.3221 -27.4289 0.0 0.0 0.0 0.0 0.0 
2798.7692707 714.812 -1611.7017001 8.28597829898 75.5906658819 -3.01629989184 -0.0677204 -0.528947 -2.19473 -0.0651243 -0.388254 -2.22392 -0.0483953 0.0896832 -2.25576 -0.0553967 -0.267606 -2.24163 -3.72512 5.97486 5.29776 -3.64586 6.82604 6.38634 -0.0 0.0 -0.0 8.02534 8.09551 15.3414 -0.944742 -27.282 54.1823 1.64334 -39.1446 0.584307 -52.717 -4.39342 4.81741 4.90478 21.1887 41.4897 -0.0 0.0 -0.0 -1.16151 10.3378 3.64503 -8.25139 18.2421 -75.3228 0.22675 6.40907 -0.0126954 14.8221 -0.282134 1.86711 -0.450897 -11.2247 -1.76624 0.0 0.0 0.0 -5.48846 2.47989 -0.582329 4.50992 -0.211816 -0.659351 36.5726 14.6939 -4.60882 -25.1208 0.0 0.0 -0.0 0.0 -0.0 19.1398 10.8045 -5.90934 -49.5052 1.17935 -7.27347 -21.6086 26.1987 -3.96169 -29.242 0.0 0.0 0.0 0.0 0.0 
2782.65425212 714.741 -1581.72890923 17.3701359558 79.8564637791 -12.5577334178 -0.0522375 -0.67312 -2.14631 -0.0498339 -0.535215 -2.18477 -0.0277058 -0.0631595 -2.24845 -0.0345177 -0.41738 -2.21029 -5.02851 6.3065 5.92659 -4.93372 7.14119 7.11957 -0.0 0.0 -0.0 8.15904 7.94805 15.5982 0.164868 -26.9716 53.4879 1.70593 -40.1966 0.624262 -52.7425 -4.39646 4.81859 4.38218 18.827 36.8372 -0.0 0.0 -0.0 -1.49692 9.37813 4.2163 -10.2919 17.7697 -74.602 0.239449 6.76476 -0.014152 14.7138 -0.281836 1.85327 -0.422433 -14.222 -3.19315 0.0 0.0 0.0 -8.24605 1.60654 0.600753 3.89328 -0.179793 -0.570189 37.6888 14.9282 -4.71867 -26.1179 0.0 0.0 -0.0 0.0 -0.0 23.6106 10.1301 -6.01552 -48.2591 1.07395 -7.11316 -21.5915 23.8788 -3.85297 -33.2795 0.0 0.0 0.0 0.0 0.0 
2775.02595955 712.355 -1558.35146358 21.8859535102 81.4452175113 -17.3433564653 0.0775367 -0.675128 -2.19593 0.0800609 -0.534063 -2.23442 0.102572 -0.0568007 -2.29662 0.0954556 -0.418703 -2.25887 -5.82524 6.30421 5.79019 -5.7367 7.35682 7.0074 -0.0 0.0 -0.0 8.21215 8.04146 15.6914 1.40602 -26.7762 52.8727 1.82987 -42.187 0.705899 -52.7731 -4.40012 4.82002 3.9398 17.4959 33.1514 -0.0 0.0 -0.0 -2.12643 8.88823 5.45769 -10.9069 17.8308 -75.1046 0.281924 7.9505 -0.0195917 14.5412 -0.281307 1.83123 -0.411315 -16.4197 -4.16439 0.0 0.0 0.0 -9.48728 1.88387 1.51832 3.62151 -0.165985 -0.530787 39.1378 15.2438 -4.85813 -26.6299 0.0 0.0 -0.0 0.0 -0.0 26.3004 10.4362 -5.74416 -47.4978 1.0113 -7.01412 -21.5605 22.3222 -3.78321 -36.2897 0.0 0.0 0.0 0.0 0.0 
2768.67535276 716.065 -1542.08499456 24.1539994427 81.9262222024 -19.8971270128 0.241879 -0.383293 -2.31811 0.244838 -0.23505 -2.33779 0.255834 0.251192 -2.33611 0.248239 -0.120801 -2.34647 -8.41354 7.23106 8.81771 -8.21322 7.33182 10.2981 -0.0 0.0 -0.0 8.26541 8.31505 15.7736 2.65641 -26.4439 53.0308 2.05029 -45.4396 0.858563 -53.9329 -4.53933 4.87262 2.89789 16.4721 25.41 -0.0 0.0 -0.0 -1.65229 8.6481 4.43876 -12.4348 16.2003 -73.3716 0.271345 7.65578 -0.0181554 14.6868 -0.281757 1.84983 -0.420168 -18.559 -4.97894 0.0 0.0 0.0 -10.3089 2.21654 2.27979 3.49747 -0.159746 -0.512782 40.1141 15.826 -4.95594 -29.1595 0.0 0.0 -0.0 0.0 -0.0 23.8806 10.6473 -5.3201 -37.6417 0.32359 -5.66529 -21.3112 21.5601 -3.7101 -40.16 0.0 0.0 0.0 0.0 0.0 
2759.70163628 718.767 -1529.92173338 25.9217419768 81.9250176586 -22.0087271337 0.193011 -0.223094 -2.42155 0.196271 -0.0685986 -2.43083 0.200557 0.435698 -2.39247 0.192573 0.0525001 -2.43123 -10.2415 7.69587 10.8164 -9.93689 7.21236 12.4255 -0.0 0.0 -0.0 8.19597 8.31361 15.645 3.36424 -26.1374 52.8778 2.21108 -47.598 0.975257 -54.7011 -4.63209 4.90591 2.11111 15.8625 19.9182 -0.0 0.0 -0.0 -1.39933 8.29947 3.86745 -13.4895 15.0447 -72.2475 0.266651 7.52489 -0.0175354 14.7974 -0.282068 1.86395 -0.427061 -20.0817 -5.54991 0.0 0.0 0.0 -11.2388 2.44445 2.99737 3.3862 -0.154182 -0.49662 40.7726 16.3091 -5.02299 -30.9927 0.0 0.0 -0.0 0.0 -0.0 22.8348 11.2886 -4.19987 -30.9564 -0.00624898 -4.69333 -21.4833 21.1544 -3.7248 -41.1289 0.0 0.0 0.0 0.0 0.0 
2744.28524862 715.27 -1521.97852234 35.8886931664 83.401402742 -32.5640110279 0.0609852 -0.572895 -2.40073 0.064094 -0.419016 -2.43229 0.0837398 0.0978775 -2.46616 0.0753722 -0.292715 -2.45069 -12.1306 7.44623 10.969 -11.8208 7.07331 12.595 -0.0 0.0 -0.0 8.19422 8.40995 15.6358 5.42481 -24.542 52.9003 2.28922 -48.5866 1.03341 -57.3463 -4.95469 5.01093 0.369402 16.0425 8.84258 -0.0 0.0 -0.0 -1.72875 6.96238 4.35991 -14.3677 14.0501 -71.431 0.341558 9.60358 -0.0286923 14.9894 -0.282543 1.88847 -0.711536 -22.7997 -4.9778 0.0 0.0 0.0 -15.018 2.30067 4.30422 7.94785 -0.407847 -1.14988 36.9823 18.14 -4.70291 -34.6896 0.0 0.0 -0.0 0.0 -0.0 23.6642 11.9551 -3.88285 -26.3119 -0.16757 -3.99899 -19.3112 14.4783 -3.15761 -40.1456 0.0 0.0 0.0 0.0 0.0 
2730.5261128 713.112 -1516.68814304 37.449323987 82.4070717575 -34.47266971 -0.078441 -0.524258 -2.42866 -0.0752351 -0.368701 -2.45708 -0.0574519 0.158421 -2.47952 -0.0659542 -0.235037 -2.47343 -12.935 7.77127 11.9382 -12.567 7.2616 13.6514 -0.0 0.0 -0.0 8.16385 7.93241 15.608 6.29369 -24.5761 52.6745 2.25329 -48.1367 1.00655 -57.0823 -4.92229 5.00112 -0.0783124 15.084 5.68595 -0.0 0.0 -0.0 -1.65069 6.45825 4.12862 -14.4207 13.5923 -70.8098 0.340674 9.57918 -0.0285449 15.2496 -0.283056 1.9217 -0.819287 -25.2774 -5.37667 0.0 0.0 0.0 -14.5415 2.13688 4.62613 5.87593 -0.286168 -0.855629 37.0272 18.9314 -4.72245 -36.1907 0.0 0.0 -0.0 0.0 -0.0 22.8119 13.384 -3.10327 -15.9826 -0.321843 -2.42364 -19.1491 14.3629 -3.12824 -39.2846 0.0 0.0 0.0 0.0 0.0 
2716.52740301 710.093 -1511.68510637 35.3936309113 82.1729148995 -32.9060821724 -0.151959 -0.411818 -2.48956 -0.148547 -0.252617 -2.51071 -0.135484 0.286746 -2.50704 -0.144237 -0.112663 -2.52086 -11.5738 8.36337 11.7131 -11.2237 8.19734 13.5224 -0.0 0.0 -0.0 8.26262 7.54897 15.8147 7.19306 -24.5886 52.627 2.24125 -47.9841 0.997597 -58.1072 -5.04834 5.03836 -1.28288 15.4766 -1.60062 -0.0 0.0 -0.0 -1.67044 6.28148 4.1439 -14.5395 12.5705 -70.3354 0.305962 8.6186 -0.0230553 16.0433 -0.283687 2.02307 -0.964815 -26.6467 -5.128 0.0 0.0 0.0 -14.4181 1.26718 5.18368 4.1644 -0.193754 -0.609433 37.3986 19.8947 -4.77869 -38.1312 0.0 0.0 -0.0 0.0 -0.0 22.9663 14.1195 -3.43811 -10.5724 -0.288875 -1.5945 -17.3614 10.8626 -2.76702 -38.6284 0.0 0.0 0.0 0.0 0.0 
2699.93002862 707.462 -1516.95391294 33.266808548 81.4135840222 -31.1280240495 -0.156627 -0.428752 -2.45917 -0.153304 -0.27145 -2.48145 -0.139571 0.262281 -2.48244 -0.148146 -0.132939 -2.4927 -9.78411 9.70454 10.6518 -9.51053 11.0115 12.7243 -0.0 0.0 -0.0 8.13842 6.74275 15.6259 8.70041 -24.8749 53.7546 2.10318 -46.1686 0.896484 -58.1854 -5.05798 5.04111 -1.77608 16.202 -4.30249 -0.0 0.0 -0.0 -1.7893 5.85442 4.32511 -14.2192 11.6035 -70.3735 0.256258 7.23475 -0.0162004 16.6791 -0.283179 2.10428 -1.20432 -27.9419 -4.35824 0.0 0.0 0.0 -15.1428 0.682868 5.77715 2.33174 -0.103019 -0.34294 42.1389 20.2119 -5.22673 -39.0886 0.0 0.0 -0.0 0.0 -0.0 22.061 14.6921 -3.43036 -1.39646 -0.0549754 -0.207251 -11.0255 9.78213 -1.73549 -37.7126 0.0 0.0 0.0 0.0 0.0 
2685.42997496 704.296 -1517.05313067 31.9648497312 80.9574477629 -29.8130604475 -0.287774 -0.379112 -2.5405 -0.284209 -0.216739 -2.55946 -0.272372 0.338298 -2.54626 -0.281413 -0.0679437 -2.56772 -9.09486 10.0017 10.1751 -8.84718 11.7348 12.2812 -0.0 0.0 -0.0 8.304 6.13624 15.9711 9.18924 -25.2018 53.7473 2.03877 -45.2782 0.850365 -59.424 -5.21121 5.08289 -2.59787 17.1828 -8.87259 -0.0 0.0 -0.0 -1.59052 6.19818 3.96905 -14.372 10.8533 -69.9529 0.200531 5.67312 -0.00993585 17.2913 -0.281839 2.18246 -1.37542 -28.8098 -3.80795 0.0 0.0 0.0 -15.6447 -0.0773824 6.06176 0.576077 -0.02415 -0.0851036 43.0559 20.7016 -5.31936 -40.2162 0.0 0.0 -0.0 0.0 -0.0 21.683 15.1892 -3.06765 3.87426 0.17882 0.567434 -9.86449 7.57023 -1.53165 -37.8168 0.0 0.0 0.0 0.0 0.0 
2614.41777294 690.219 -1516.70590609 93.0631942797 85.8386480995 -91.3328012698 -0.987348 -0.721362 -2.37191 -0.984399 -0.569015 -2.41298 -0.957484 -0.00791483 -2.47911 -0.965838 -0.399226 -2.44678 -7.90165 10.4874 8.68346 -7.7249 13.4236 10.8356 -0.0 0.0 -0.0 7.79037 5.98 15.0041 9.67026 -25.6271 56.5617 2.44134 -50.4057 1.14909 -59.3991 -5.20812 5.08208 -2.80362 16.5721 -10.4724 -0.0 0.0 -0.0 -0.591043 4.33002 1.69793 -14.0789 9.59986 -72.5187 0.402573 11.2783 -0.0397507 19.3277 -0.271373 2.44234 -1.57409 -27.8772 -2.31768 0.0 0.0 0.0 -19.8143 -3.26861 3.95495 0.886526 -0.0375197 -0.130866 41.4835 16.1639 -5.08296 -39.4275 0.0 0.0 -0.0 0.0 -0.0 23.7933 19.3458 -2.6178 2.24918 0.0991335 0.330869 -2.87293 4.91143 -0.43503 -32.4204 0.0 0.0 0.0 0.0 0.0 
2612.53113133 690.219 -1523.8407348 83.1152049317 85.8143692609 -81.358495694 -0.987348 -0.721362 -2.37191 -0.984399 -0.569015 -2.41298 -0.957484 -0.00791483 -2.47911 -0.965838 -0.399226 -2.44678 -7.90165 10.4874 8.68346 -7.7249 13.4236 10.8356 -0.0 0.0 -0.0 7.79037 5.98 15.0041 9.67026 -25.6271 56.5617 2.44134 -50.4057 1.14909 -59.3991 -5.20812 5.08208 -2.80362 16.5721 -10.4724 -0.0 0.0 -0.0 -0.591043 4.33002 1.69793 -14.0789 9.59986 -72.5187 0.402573 11.2783 -0.0397507 19.3277 -0.271373 2.44234 -1.57409 -27.8772 -2.31768 0.0 0.0 0.0 -19.8143 -3.26861 3.95495 0.886526 -0.0375197 -0.130866 41.4835 16.1639 -5.08296 -39.4275 0.0 0.0 -0.0 0.0 -0.0 23.7933 19.3458 -2.6178 2.24918 0.0991335 0.330869 -2.87293 4.91143 -0.43503 -32.4204 0.0 0.0 0.0 0.0 0.0 
